<svg xmlns="http://www.w3.org/2000/svg" viewBox="0 0 16 16" shape-rendering="crispEdges">
  <g fill="#1a3a6b">
    <rect x="6" y="1" width="4" height="1"/>
    <rect x="4" y="2" width="8" height="1"/>
    <rect x="3" y="3" width="10" height="1"/>
    <rect x="2" y="4" width="12" height="2"/>
    <rect x="1" y="6" width="14" height="6"/>
    <rect x="2" y="12" width="12" height="2"/>
    <rect x="3" y="14" width="10" height="1"/>
  </g>
  <g fill="#7ad7ff">
    <rect x="7" y="2" width="2" height="1"/>
    <rect x="5" y="3" width="6" height="1"/>
    <rect x="4" y="4" width="8" height="2"/>
    <rect x="3" y="6" width="10" height="1"/>
    <rect x="2" y="7" width="12" height="4"/>
    <rect x="2" y="11" width="12" height="1"/>
    <rect x="3" y="12" width="10" height="2"/>
  </g>
  <g fill="#fff">
    <rect x="4" y="7" width="1" height="1"/>
    <rect x="5" y="8" width="1" height="1"/>
    <rect x="4" y="9" width="1" height="1"/>
    <rect x="5" y="10" width="1" height="1"/>
    <rect x="11" y="7" width="1" height="1"/>
    <rect x="10" y="8" width="1" height="1"/>
    <rect x="11" y="9" width="1" height="1"/>
    <rect x="10" y="10" width="1" height="1"/>
    <rect x="7" y="8" width="2" height="2"/>
  </g>
</svg>
